<?xml version="1.0" standalone="no"?>
<!DOCTYPE svg PUBLIC "-//W3C//DTD SVG 20010904//EN"
 "http://www.w3.org/TR/2001/REC-SVG-20010904/DTD/svg10.dtd">
<svg version="1.0" xmlns="http://www.w3.org/2000/svg"
 width="528.000000pt" height="357.000000pt" viewBox="0 0 528.000000 357.000000"
 preserveAspectRatio="xMidYMid meet">

<g transform="translate(0.000000,357.000000) scale(0.100000,-0.100000)"
fill="#000000" stroke="none">
<path d="M2650 3180 c-115 -21 -207 -78 -263 -163 -50 -76 -68 -132 -74 -222
-5 -64 -11 -86 -29 -108 -68 -82 -21 -213 88 -241 31 -8 56 -25 92 -63 54 -59
56 -83 5 -83 -50 0 -147 -29 -219 -65 -119 -60 -228 -178 -349 -380 l-53 -87
21 -29 22 -29 -49 -92 c-60 -115 -86 -203 -77 -267 l6 -46 -70 -17 c-122 -29
-198 -99 -221 -203 -32 -146 50 -270 238 -359 34 -16 62 -33 62 -37 0 -5 -9
-13 -19 -19 -11 -5 -27 -30 -37 -55 -32 -84 6 -147 106 -176 95 -27 236 -16
486 37 l121 26 153 -36 153 -37 22 21 c27 25 24 26 190 -10 77 -17 210 -40
295 -51 226 -29 324 -9 364 76 35 73 -4 162 -86 196 -16 6 -27 14 -24 16 2 2
55 17 118 32 131 33 183 56 244 113 94 87 122 218 69 325 -39 77 -134 140
-228 152 l-49 6 -2 90 c-1 89 -2 92 -60 208 -56 110 -58 118 -43 135 10 10 17
25 17 34 0 20 -124 205 -195 291 -100 121 -229 199 -377 227 -32 6 -58 16 -58
22 0 6 28 39 63 73 44 44 74 64 98 69 49 9 99 63 106 114 7 54 -2 85 -36 124
-26 30 -29 41 -33 128 -6 121 -30 180 -102 249 -107 101 -235 137 -386 111z
m-20 -359 c59 -47 101 -64 165 -65 59 -1 60 -1 58 26 l-2 26 62 -29 c65 -30
72 -37 81 -80 7 -33 27 -41 66 -27 57 19 100 -19 100 -88 0 -37 -51 -84 -90
-84 -26 0 -42 -10 -84 -56 -64 -71 -114 -100 -196 -115 -55 -10 -75 -9 -130 5
-77 20 -149 64 -191 117 -22 28 -38 39 -57 39 -73 0 -130 84 -101 146 17 35
54 42 99 19 42 -22 57 -14 65 33 4 27 15 46 35 61 16 12 40 39 52 61 13 22 25
40 28 40 3 0 21 -13 40 -29z m80 -547 c35 -4 76 -1 113 9 49 13 59 13 64 2 8
-23 -17 -83 -44 -105 -100 -78 -283 -20 -283 91 0 37 7 39 53 23 23 -8 67 -17
97 -20z m-180 -77 c36 -72 95 -102 200 -102 99 0 154 28 189 98 26 53 30 54
116 31 73 -18 165 -68 227 -123 48 -43 188 -221 226 -290 l22 -39 -37 -30
c-21 -16 -85 -61 -143 -101 l-104 -71 -24 25 c-23 25 -46 32 -56 17 -3 -5 -1
-67 4 -138 4 -71 5 -132 2 -136 -4 -4 -189 -11 -412 -17 -402 -10 -405 -10
-439 11 l-34 21 7 118 c6 110 5 119 -13 128 -14 8 -22 7 -31 -4 -20 -24 -38
-18 -109 33 -36 27 -93 66 -126 87 -33 20 -63 42 -67 48 -9 15 -1 33 75 147
88 132 192 236 278 279 56 28 166 59 209 60 8 0 26 -23 40 -52z m-475 -592
c55 -37 102 -69 104 -71 1 -1 -12 -29 -30 -62 -17 -33 -30 -66 -27 -74 5 -13
242 -159 403 -249 69 -38 136 -97 165 -145 19 -29 20 -36 7 -59 -12 -24 -15
-25 -26 -11 -33 40 -62 5 -36 -43 9 -18 19 -61 22 -97 6 -65 6 -66 -17 -62
-20 2 -25 12 -35 59 -12 62 -38 109 -60 109 -24 0 -25 -14 -5 -79 25 -79 25
-91 0 -91 -23 0 -43 28 -65 89 -8 24 -36 71 -61 105 -25 33 -50 80 -56 103
-11 47 -7 44 -178 99 -47 15 -125 46 -175 69 -185 86 -207 166 -103 377 29 59
58 106 63 104 6 -2 55 -34 110 -71z m1487 -23 c57 -116 73 -178 58 -230 -27
-98 -84 -140 -350 -252 -69 -30 -130 -57 -136 -62 -7 -5 -17 -28 -23 -53 -7
-28 -29 -64 -60 -100 -40 -46 -52 -68 -63 -118 -11 -51 -17 -63 -35 -65 -30
-4 -35 21 -19 90 11 49 11 59 -1 70 -23 18 -40 -9 -56 -87 -11 -58 -17 -71
-35 -73 -31 -5 -37 34 -17 104 23 82 23 98 2 102 -20 4 -50 -55 -62 -120 -7
-38 -18 -45 -44 -29 -21 14 -8 92 27 164 39 78 108 148 192 195 126 69 420
276 420 295 0 7 -16 36 -35 66 l-34 54 107 73 c59 41 109 74 112 74 3 0 26
-44 52 -98z m-290 -122 c16 -40 16 -40 -10 -61 l-27 -21 -6 59 c-3 32 -4 61
-2 65 8 15 29 -4 45 -42z m-1032 8 c0 -18 -3 -43 -6 -55 -5 -19 -9 -20 -30
-11 -14 6 -23 14 -21 17 1 3 11 23 22 44 23 46 35 47 35 5z m815 -214 c-11 -9
-65 -42 -120 -75 -55 -32 -120 -78 -144 -103 l-43 -44 -62 62 c-33 33 -99 84
-146 111 l-85 50 190 5 c402 12 432 11 410 -6z m716 -26 c47 -14 113 -68 135
-111 9 -16 16 -56 17 -87 1 -111 -79 -198 -225 -245 -107 -34 -320 -75 -391
-75 -66 0 -247 28 -260 40 -12 11 16 71 48 100 29 27 65 90 65 113 0 23 21 36
175 102 165 72 214 99 270 149 36 33 44 36 84 31 24 -3 61 -10 82 -17z m-1900
-21 c53 -46 124 -79 288 -135 l140 -47 16 -41 c8 -23 33 -64 54 -93 21 -28 46
-72 56 -98 36 -95 89 -138 140 -115 17 8 33 8 51 2 19 -8 34 -7 56 4 37 19 82
11 114 -19 l25 -23 -35 -76 c-22 -49 -39 -74 -48 -71 -7 2 -125 34 -263 70
-375 100 -611 172 -700 215 -177 85 -249 199 -199 318 35 85 120 139 222 141
36 1 51 -5 83 -32z m1249 -532 c47 -8 142 -21 211 -30 187 -22 259 -55 259
-116 0 -108 -201 -118 -612 -33 -69 15 -132 30 -138 34 -16 10 18 108 42 121
10 5 28 5 46 -2 24 -8 37 -7 61 6 17 8 31 20 31 25 0 13 -1 13 100 -5z m-1067
-55 c72 -21 165 -49 205 -60 41 -12 72 -23 70 -26 -11 -10 -213 -46 -293 -51
-179 -11 -277 38 -234 118 13 26 68 59 97 59 12 0 82 -18 155 -40z"/>
<path d="M2614 2685 c-9 -23 3 -45 26 -45 25 0 37 25 20 45 -16 19 -39 19 -46
0z"/>
<path d="M2824 2675 c-4 -9 -2 -21 4 -27 16 -16 47 -5 47 17 0 26 -42 34 -51
10z"/>
<path d="M2712 2623 c2 -21 9 -29 27 -31 13 -2 28 1 34 7 14 14 -19 51 -45 51
-15 0 -19 -6 -16 -27z"/>
<path d="M2352 2627 c-7 -8 -7 -18 -2 -27 6 -8 10 -25 10 -36 0 -28 31 -40 46
-19 24 33 -29 112 -54 82z"/>
<path d="M3065 2616 c-23 -35 -16 -70 14 -74 30 -5 38 9 36 56 -1 45 -26 55
-50 18z"/>
<path d="M2653 2517 c-9 -15 27 -45 63 -51 62 -12 137 20 116 50 -9 11 -172
13 -179 1z"/>
</g>
</svg>
