<?xml version="1.0" encoding="UTF-8"?>
<svg id="Layer_1" data-name="Layer 1" xmlns="http://www.w3.org/2000/svg" viewBox="0 0 446.69 354.38">
  <defs>
    <style>
      .cls-1 {
        fill: #de7f43;
      }
    </style>
  </defs>
  <path class="cls-1" d="M424.89,349.53H21.8c-9.05,0-16.38-7.33-16.38-16.38V21.22c0-9.05,7.33-16.38,16.38-16.38h403.09c9.05,0,16.38,7.33,16.38,16.38v311.93c0,9.05-7.33,16.38-16.38,16.38ZM38.19,316.77h370.32V37.61H38.19v279.16Z"/>
  <g>
    <path class="cls-1" d="M425.43,181h-46.36l-19.4-25.93c-1.29-1.72-3.86-2.8-6.66-2.8h-.07c-2.83.02-5.4,1.14-6.66,2.89l-18.44,25.84h-43.85c-3.41,0-6.4,1.59-7.26,3.88l-26.15,69.27-49.75-178.34c-.68-2.43-3.74-4.19-7.32-4.21h-.05c-3.56,0-6.63,1.73-7.35,4.15l-42.4,143.11-34.65-71.7c-1.03-2.13-3.92-3.55-7.15-3.55-3.24.01-6.1,1.46-7.1,3.59l-15.82,33.8H27.89c.58,1.67.88,3.41.88,5.19s-.3,3.53-.88,5.19h56.57c3.25,0,6.13-1.45,7.14-3.59l10.48-22.39,36.28,75.06c1.08,2.23,4.18,3.68,7.57,3.54,3.39-.14,6.21-1.84,6.9-4.14l40.44-136.48,48.87,175.2c.66,2.38,3.62,4.13,7.12,4.21.08,0,.16,0,.24,0,3.4,0,6.39-1.59,7.25-3.88l33.04-87.52h42.72c2.85,0,5.46-1.12,6.72-2.89l13.94-19.53,14.68,19.62c1.29,1.72,3.86,2.8,6.66,2.8h53.67c-.89-3.47-1.79-6.93-2.75-10.38Z"/>
    <path class="cls-1" d="M249.49,289.78h-.4c-6.69-.16-12.19-3.9-13.71-9.33l-42.33-151.75-33.52,113.14c-1.54,5.2-6.89,8.88-13.32,9.15-6.27.24-11.83-2.68-14.16-7.48l-29.88-61.82-4.24,9.06c-2.17,4.63-7.46,7.62-13.48,7.62H18.05l3.22-9.29c.33-.95.5-1.92.5-2.9s-.17-1.95-.5-2.9l-3.22-9.29h56.5l13.93-29.77c2.16-4.61,7.43-7.6,13.42-7.62h.03c5.97,0,11.24,2.94,13.45,7.5l26.78,55.4,37.26-125.76c1.63-5.48,7.28-9.16,14.06-9.16,6.81.03,12.58,3.86,14.11,9.32l44,157.76,18.6-49.27c1.89-5.03,7.44-8.41,13.81-8.41h40.24l16.34-22.91c2.58-3.62,7.18-5.79,12.31-5.83h.11c5.05,0,9.64,2.1,12.27,5.61l17.3,23.13h48.17l1.43,5.12c.84,3.03,1.7,6.28,2.79,10.53l2.23,8.73h-62.68c-5.05,0-9.64-2.1-12.27-5.61l-8.95-11.95-8.38,11.74c-2.6,3.65-7.24,5.83-12.42,5.83h-37.88l-31.33,83c-1.9,5.03-7.45,8.41-13.8,8.41ZM248.58,275.67c.2.05.46.1.78.11l-54.97-197.08c-.2-.05-.46-.1-.78-.11l54.97,197.08ZM282.99,188.14l-33.08,87.62c.24-.03.44-.07.58-.12l33.08-87.62c-.24.03-.43.07-.58.12ZM192.55,78.71l-46.9,158.29c.31-.01.56-.06.75-.12l46.9-158.29c-.31.01-.56.06-.75.12ZM144.38,236.84c.09.03.19.06.31.09l-41.64-86.14c-.08-.03-.19-.06-.31-.09l41.64,86.15ZM100.88,150.77l-15.7,33.54c.14-.03.26-.06.36-.1l15.7-33.54c-.14.03-.26.06-.36.1Z"/>
  </g>
</svg>