<?xml version="1.0" encoding="UTF-8"?>
<svg id="Layer_1" data-name="Layer 1" xmlns="http://www.w3.org/2000/svg" viewBox="0 0 550.42 314.84">
  <defs>
    <style>
      .cls-1 {
        fill: #de7f43;
      }
    </style>
  </defs>
  <path class="cls-1" d="M270.96,312.49c-38.24,0-76.48.08-114.72-.02-38.19-.1-59.65-21.35-60.11-59.8-.33-27.81-.58-55.63-.04-83.42.17-8.94-3.04-12.83-11.11-16.05-22.17-8.85-44.05-18.48-65.77-28.41C4.37,118.02-.22,106.28,5.55,92.92c5.29-12.24,15.92-16.94,28.89-11.78,16.54,6.58,32.74,13.97,49.15,20.88,11.66,4.91,28.25-1.94,34.92-12.45,16.92-26.65,39.58-44.77,72.96-45.16,4.34-.05,8.77-.5,13.02.14,10.61,1.59,14.33-2.04,14.09-13.23-.48-22.11,6.85-28.89,28.6-28.95,17.81-.05,35.64-.11,53.44.22,18.77.34,26.6,7.57,25.56,26.42-.75,13.47,3.53,16.71,16.58,16.22,33.25-1.25,56.51,16.38,74.17,42.87,9.39,14.1,18.78,17.21,35.33,10.81,20.25-7.82,40.37-16,60.54-24.01,15.08-5.99,25.04-2.13,31.76,12.29,6.06,13.01,2.13,24.19-12.56,30.66-24.37,10.73-48.94,21.15-73.96,30.21-8.51,3.08-14.11,11.24-13.86,20.29.81,29.09.33,58.22.18,87.33-.17,34.69-21.3,56.2-56.07,56.49-39.1.33-78.22.08-117.32.08v.25ZM270.44,119.73c-46.88,0-93.77.01-140.65,0-16.43,0-16.52-.03-16.54,17.07-.04,38.63-.07,77.27.04,115.91.08,27.66,13.08,40.92,40.52,40.96,78.57.11,157.15.11,235.72-.02,24.49-.04,36.51-12.38,36.61-37.14.15-41.24-.19-82.49.44-123.72.15-10.14-2.45-13.39-12.89-13.28-47.75.51-95.5.23-143.25.23M403.68,100.85c-16.03-23.75-33.92-38.4-62.05-38.01-49.03.67-98.09.96-147.09-.27-24.89-.62-42.02,10.83-57.04,28.24-2.19,2.54-5.5,5.3-3.46,9.02,1.74,3.18,5.51,1.44,8.35,1.44,83.32.1,166.63.11,249.95.12,2.91,0,5.82-.27,11.34-.55M270.96,43.84v.79c9.09,0,18.23-.57,27.26.15,10.65.84,8.98-6.26,9.44-12.6.52-7.16-1.01-11.44-9.68-11.19-16.44.47-32.91.32-49.35-.03-8.26-.17-13.53.23-13.59,11.42-.06,11.3,4.62,12.97,13.84,12.28,7.32-.55,14.71-.11,22.07-.11M529.9,95.68c-1.57-6.74-5.91-7.72-11.73-5.26-10.36,4.38-20.62,9.01-31.04,13.24-12.42,5.05-24.91,9.95-37.49,14.59-5.82,2.15-6.96,6.42-5.52,11.35,1.86,6.36,6.24,2.52,9.38,1.28,23.32-9.27,46.56-18.72,69.82-28.13,3.21-1.3,6.66-2.43,6.58-7.06M95.73,130.88c.27-4.38-1.79-6.57-6.18-8.3-19.77-7.78-39.35-16.03-58.94-24.24-3.7-1.55-7.56-3.97-10.17.76-2.87,5.21.93,8.24,5.11,10.05,21.1,9.14,42.31,18.03,63.43,27.11,5.74,2.47,6.89-.41,6.75-5.38"/>
</svg>