<?xml version="1.0" encoding="UTF-8"?>
<svg id="Layer_1" data-name="Layer 1" xmlns="http://www.w3.org/2000/svg" viewBox="0 0 446.69 593.38">
  <defs>
    <style>
      .cls-1 {
        fill: #de7f43;
      }
    </style>
  </defs>
  <path class="cls-1" d="M441.69,6.46v75.14h-35.28c-6.62,0-11.98-5.36-11.98-11.98V18.44c0-6.62,5.37-11.98,11.98-11.98h35.28Z"/>
  <path class="cls-1" d="M441.69,6.46v75.14h-35.28c-6.62,0-11.98-5.36-11.98-11.98V18.44c0-6.62,5.37-11.98,11.98-11.98h35.28Z"/>
  <g>
    <g>
      <path class="cls-1" d="M96.18,334.34c-8.82,13.8-19.38,27.21-19.38,41.42s8.68,25.73,19.38,25.73,19.38-11.52,19.38-25.73-10.56-27.62-19.38-41.42Z"/>
      <path class="cls-1" d="M168.41,334.34c-8.82,13.8-19.38,27.21-19.38,41.42s8.68,25.73,19.38,25.73,19.38-11.52,19.38-25.73-10.56-27.62-19.38-41.42Z"/>
      <path class="cls-1" d="M240.64,334.34c-8.82,13.8-19.38,27.21-19.38,41.42s8.68,25.73,19.38,25.73,19.38-11.52,19.38-25.73-10.56-27.62-19.38-41.42Z"/>
    </g>
    <g>
      <path class="cls-1" d="M60.07,427.05c-8.82,13.8-19.38,27.21-19.38,41.42s8.68,25.73,19.38,25.73,19.38-11.52,19.38-25.73-10.56-27.62-19.38-41.42Z"/>
      <path class="cls-1" d="M132.3,427.05c-8.82,13.8-19.38,27.21-19.38,41.42s8.68,25.73,19.38,25.73,19.38-11.52,19.38-25.73-10.56-27.62-19.38-41.42Z"/>
      <path class="cls-1" d="M204.53,427.05c-8.82,13.8-19.38,27.21-19.38,41.42s8.68,25.73,19.38,25.73,19.38-11.52,19.38-25.73-10.56-27.62-19.38-41.42Z"/>
      <path class="cls-1" d="M276.76,427.05c-8.82,13.8-19.38,27.21-19.38,41.42s8.68,25.73,19.38,25.73,19.38-11.52,19.38-25.73-10.56-27.62-19.38-41.42Z"/>
    </g>
    <g>
      <path class="cls-1" d="M24.38,519.76c-8.82,13.8-19.38,27.21-19.38,41.42s8.68,25.73,19.38,25.73,19.38-11.52,19.38-25.73-10.56-27.62-19.38-41.42Z"/>
      <path class="cls-1" d="M96.61,519.76c-8.82,13.8-19.38,27.21-19.38,41.42s8.68,25.73,19.38,25.73,19.38-11.52,19.38-25.73-10.56-27.62-19.38-41.42Z"/>
      <path class="cls-1" d="M168.84,519.76c-8.82,13.8-19.38,27.21-19.38,41.42s8.68,25.73,19.38,25.73,19.38-11.52,19.38-25.73-10.56-27.62-19.38-41.42Z"/>
      <path class="cls-1" d="M241.07,519.76c-8.82,13.8-19.38,27.21-19.38,41.42s8.68,25.73,19.38,25.73,19.38-11.52,19.38-25.73-10.56-27.62-19.38-41.42Z"/>
      <path class="cls-1" d="M312.44,519.76c-8.82,13.8-19.38,27.21-19.38,41.42s8.68,25.73,19.38,25.73,19.38-11.52,19.38-25.73-10.56-27.62-19.38-41.42Z"/>
    </g>
  </g>
  <path class="cls-1" d="M298.02,253.52H38.8c26.97-43.19,74.93-71.94,129.61-71.94s102.63,28.74,129.61,71.94Z"/>
  <path class="cls-1" d="M298.02,253.52H38.8c26.97-43.19,74.93-71.94,129.61-71.94s102.63,28.74,129.61,71.94Z"/>
  <path class="cls-1" d="M326.56,280.03v4.28c0,7.85-6.37,14.22-14.22,14.22H24.48c-7.85,0-14.22-6.37-14.22-14.22v-4.28c0-7.86,6.37-14.22,14.22-14.22h287.86c7.85,0,14.22,6.37,14.22,14.22Z"/>
  <path class="cls-1" d="M326.56,280.03v4.28c0,7.85-6.37,14.22-14.22,14.22H24.48c-7.85,0-14.22-6.37-14.22-14.22v-4.28c0-7.86,6.37-14.22,14.22-14.22h287.86c7.85,0,14.22,6.37,14.22,14.22Z"/>
  <path class="cls-1" d="M382.14,22.82v42.42h-132.19c-33.9,0-61.47,27.57-61.47,61.47v27.51h19.02c5.52,0,10,4.47,10,10v12.52c-15.78-4.92-32.31-7.44-49.08-7.44s-33.3,2.53-49.08,7.44v-12.52c0-5.52,4.48-10,10-10h16.73v-27.51c0-27.75,10.81-53.83,30.43-73.46,19.62-19.62,45.71-30.43,73.46-30.43h132.19Z"/>
</svg>